<svg width="27" height="27" viewBox="0 0 27 27" fill="none" xmlns="http://www.w3.org/2000/svg">
<path d="M14.8106 0.748779C16.245 0.752604 16.973 0.760254 17.6016 0.778104L17.849 0.787029C18.1346 0.797229 18.4163 0.809979 18.7568 0.825279C20.1134 0.889029 21.039 1.10323 21.8512 1.41815C22.6927 1.742 23.4016 2.1806 24.1105 2.88823C24.7591 3.52539 25.2608 4.29643 25.5806 5.14753C25.8955 5.9597 26.1097 6.88535 26.1734 8.24323C26.1887 8.58238 26.2015 8.86415 26.2117 9.15103L26.2193 9.39838C26.2385 10.0257 26.2461 10.7537 26.2487 12.1881L26.2499 13.1392V14.8095C26.253 15.7395 26.2433 16.6695 26.2206 17.5992L26.213 17.8465C26.2028 18.1334 26.19 18.4152 26.1747 18.7543C26.111 20.1122 25.8942 21.0366 25.5806 21.85C25.2608 22.7011 24.7591 23.4722 24.1105 24.1093C23.4733 24.7579 22.7023 25.2596 21.8512 25.5794C21.039 25.8943 20.1134 26.1085 18.7568 26.1723L17.849 26.2105L17.6016 26.2182C16.973 26.236 16.245 26.245 14.8106 26.2475L13.8595 26.2488H12.1905C11.2601 26.2521 10.3297 26.2423 9.39953 26.2195L9.15218 26.2118C8.84951 26.2003 8.5469 26.1872 8.24438 26.1723C6.88778 26.1085 5.96213 25.8943 5.14868 25.5794C4.29804 25.2594 3.52745 24.7578 2.89066 24.1093C2.24161 23.4723 1.73947 22.7012 1.41931 21.85C1.10438 21.0379 0.890182 20.1122 0.826432 18.7543L0.788182 17.8465L0.781807 17.5992C0.758304 16.6695 0.747677 15.7395 0.749932 14.8095V12.1881C0.746403 11.2581 0.755754 10.3281 0.777982 9.39838L0.786907 9.15103C0.797107 8.86415 0.809857 8.58238 0.825157 8.24323C0.888907 6.88535 1.10311 5.96098 1.41803 5.14753C1.73894 4.29608 2.24197 3.52501 2.89193 2.88823C3.52835 2.23995 4.2985 1.73827 5.14868 1.41815C5.96213 1.10323 6.88651 0.889029 8.24438 0.825279C8.58353 0.809979 8.86658 0.797229 9.15218 0.787029L9.39953 0.779379C10.3293 0.756726 11.2592 0.74695 12.1892 0.750054L14.8106 0.748779ZM13.4999 7.12378C11.8092 7.12378 10.1877 7.79543 8.99213 8.99097C7.79658 10.1865 7.12493 11.808 7.12493 13.4988C7.12493 15.1895 7.79658 16.811 8.99213 18.0066C10.1877 19.2021 11.8092 19.8738 13.4999 19.8738C15.1907 19.8738 16.8122 19.2021 18.0077 18.0066C19.2033 16.811 19.8749 15.1895 19.8749 13.4988C19.8749 11.808 19.2033 10.1865 18.0077 8.99097C16.8122 7.79543 15.1907 7.12378 13.4999 7.12378ZM13.4999 9.67378C14.0022 9.6737 14.4996 9.77255 14.9637 9.9647C15.4278 10.1568 15.8496 10.4385 16.2048 10.7936C16.56 11.1488 16.8419 11.5704 17.0342 12.0344C17.2265 12.4985 17.3255 12.9958 17.3256 13.4981C17.3257 14.0004 17.2268 14.4979 17.0347 14.962C16.8425 15.4261 16.5608 15.8478 16.2057 16.203C15.8506 16.5583 15.429 16.8401 14.9649 17.0324C14.5009 17.2247 14.0035 17.3237 13.5012 17.3238C12.4868 17.3238 11.5139 16.9208 10.7965 16.2035C10.0792 15.4861 9.67621 14.5132 9.67621 13.4988C9.67621 12.4843 10.0792 11.5114 10.7965 10.7941C11.5139 10.0768 12.4868 9.67378 13.5012 9.67378M20.195 5.21128C19.7723 5.21128 19.3669 5.37919 19.068 5.67808C18.7691 5.97696 18.6012 6.38234 18.6012 6.80503C18.6012 7.22772 18.7691 7.63309 19.068 7.93198C19.3669 8.23087 19.7723 8.39878 20.195 8.39878C20.6176 8.39878 21.023 8.23087 21.3219 7.93198C21.6208 7.63309 21.7887 7.22772 21.7887 6.80503C21.7887 6.38234 21.6208 5.97696 21.3219 5.67808C21.023 5.37919 20.6176 5.21128 20.195 5.21128Z" fill="#293119"/>
</svg>
