<svg width="19" height="25" viewBox="0 0 19 25" fill="none" xmlns="http://www.w3.org/2000/svg">
<path d="M10.9155 9.83519C10.9155 9.59723 11.1087 9.40297 11.3462 9.41723C13.0937 9.52215 14.7485 10.2628 15.9934 11.5076C17.3401 12.8544 18.0967 14.6809 18.0967 16.5855C18.0967 18.49 17.3401 20.3166 15.9934 21.6633C14.7485 22.9082 13.0937 23.6488 11.3462 23.7537C11.1087 23.7679 10.9155 23.5737 10.9155 23.3357L10.9155 16.5855V9.83519Z" fill="#121212"/>
<circle cx="13.9314" cy="4.08959" r="3.59057" fill="#121212"/>
<circle cx="4.88354" cy="20.1755" r="3.59057" fill="#121212"/>
<path d="M1.49841 21.4341C1.64966 21.0185 2.19407 20.9225 2.47834 21.2613L3.27784 22.2141C3.56211 22.5529 3.37304 23.0723 2.93752 23.1491L1.7126 23.3651C1.27708 23.4419 0.921741 23.0184 1.073 22.6029L1.49841 21.4341Z" fill="#121212"/>
<path fill-rule="evenodd" clip-rule="evenodd" d="M8.04247 0.512457C8.28 0.498196 8.47313 0.69245 8.47313 0.930412V7.68068L8.47313 14.431C8.47313 14.6689 8.28 14.8632 8.04247 14.8489C6.295 14.744 4.64016 14.0034 3.3953 12.7585C2.04857 11.4118 1.29199 9.58524 1.29199 7.68068C1.29199 5.77613 2.04857 3.94958 3.3953 2.60285C4.64016 1.35799 6.295 0.617375 8.04247 0.512457ZM4.44955 4.35668C4.12187 4.35668 3.85623 4.62232 3.85623 4.95001C3.85623 5.27769 4.12187 5.54333 4.44955 5.54333L7.11952 5.54334C7.44721 5.54334 7.71285 5.27769 7.71285 4.95001C7.71285 4.62232 7.44721 4.35668 7.11952 4.35668L4.44955 4.35668ZM2.96604 7.91691C2.96604 7.58923 3.23168 7.32358 3.55936 7.32358H7.11933C7.44701 7.32358 7.71265 7.58923 7.71265 7.91691C7.71265 8.2446 7.44701 8.51024 7.11933 8.51024H3.55936C3.23168 8.51024 2.96604 8.2446 2.96604 7.91691ZM4.44955 10.2897C4.12187 10.2897 3.85623 10.5553 3.85623 10.883C3.85623 11.2107 4.12187 11.4764 4.44955 11.4764H7.11952C7.44721 11.4764 7.71285 11.2107 7.71285 10.883C7.71285 10.5553 7.44721 10.2897 7.11952 10.2897L4.44955 10.2897Z" fill="#121212"/>
</svg>
