<svg width="21" height="23" viewBox="0 0 21 23" fill="none" xmlns="http://www.w3.org/2000/svg">
<path d="M16.3652 3.61918C15.4937 2.6242 15.0133 1.34641 15.0137 0.0236816H11.074V15.8337C11.0436 16.6892 10.6824 17.4996 10.0664 18.0942C9.45045 18.6887 8.62781 19.0211 7.77171 19.0212C5.96121 19.0212 4.45671 17.5422 4.45671 15.7062C4.45671 13.5132 6.57321 11.8684 8.75346 12.5442V8.51518C4.35471 7.92868 0.504211 11.3457 0.504211 15.7062C0.504211 19.9519 4.02321 22.9737 7.75896 22.9737C11.7625 22.9737 15.0137 19.7224 15.0137 15.7062V7.68643C16.6113 8.83374 18.5294 9.44931 20.4962 9.44593V5.50618C20.4962 5.50618 18.0992 5.62093 16.3652 3.61918Z" fill="#293119"/>
</svg>
